{"title":"Dr. Phibes Rises Again (1972) DVDrip","uid":10203837,"size":1381517325,"categoryP":"video","categoryS":"movies","magnet":"?xt=urn:btih:a4dd289a860d148709bb737f3e1d8651e0c6588b&amp;dn=Dr.+Phibes+Rises+Again+%281972%29+DVDrip&amp;tr=udp%3A%2F%2Ftracker.openbittorrent.com%3A80&amp;tr=udp%3A%2F%2Fopen.demonii.com%3A1337&amp;tr=udp%3A%2F%2Ftracker.coppersurfer.tk%3A6969&amp;tr=udp%3A%2F%2Fexodus.desync.com%3A6969","seeders":0,"leechers":0,"uploader":"Pitufo7777","files":2,"time":1400811574,"description":"This one I ripped myself from the dvd5 NTSC copy that I had since I noticed that there were no quality rips elsewhere on the net.\n\nPlease SEED and Enjoy!\n\nPapaPitufo\n\nVideo\nID                                       : 1\nFormat                                   : AVC\nFormat/Info                              : Advanced Video Codec\nFormat profile                           : &lt;a class=&quot;__cf_email__&quot; href=&quot;/cdn-cgi/l/email-protection&quot; data-cfemail=&quot;420f232b2c020e716c72&quot;&gt;[email&amp;#160;protected]&lt;/a&gt;&lt;script data-cfhash='f9e31' type=&quot;text/javascript&quot;&gt;\n/* &lt;![CDATA[ */!function(){try{var t=&quot;currentScript&quot;in document?document.currentScript:function(){for(var t=document.getElementsByTagName(&quot;script&quot;),e=t.length;e--;)if(t[e].getAttribute(&quot;data-cfhash&quot;))return t[e]}();if(t&amp;&amp;t.previousSibling){var e,r,n,i,c=t.previousSibling,a=c.getAttribute(&quot;data-cfemail&quot;);if(a){for(e=&quot;&quot;,r=parseInt(a.substr(0,2),16),n=2;a.length-n;n+=2)i=parseInt(a.substr(n,2),16)^r,e+=String.fromCharCode(i);e=document.createTextNode(e),c.parentNode.replaceChild(e,c)}t.parentNode.removeChild(t);}}catch(u){}}()/* ]]&gt; */&lt;/script&gt;\nFormat settings, CABAC                   : Yes\nFormat settings, ReFrames                : 4 frames\nCodec ID                                 : avc1\nCodec ID/Info                            : Advanced Video Coding\nDuration                                 : 1h 29mn\nBit rate                                 : 1 863 Kbps\nWidth                                    : 716 pixels\nHeight                                   : 440 pixels\nDisplay aspect ratio                     : 1.928\nOriginal display aspect ratio            : 1.929\nFrame rate mode                          : Variable\nFrame rate                               : 23.976 fps\nMinimum frame rate                       : 8.563 fps\nMaximum frame rate                       : 29.970 fps\nColor space                              : YUV\nChroma subsampling                       : 4:2:0\nBit depth                                : 8 bits\nScan type                                : Progressive\nBits/(Pixel*Frame)                       : 0.247\nStream size                              : 1.16 GiB (90%)\nWriting library                          : x264 core 112\n\n\nAudio\nID                                       : 2\nFormat                                   : AC-3\nFormat/Info                              : Audio Coding 3\nMode extension                           : CM (complete main)\nFormat settings, Endianness              : Big\nCodec ID                                 : ac-3\nDuration                                 : 1h 29mn\nBit rate mode                            : Constant\nBit rate                                 : 192 Kbps\nChannel(s)                               : 2 channels\nChannel positions                        : Front: L R\nSampling rate                            : 48.0 KHz\nBit depth                                : 16 bits\nCompression mode                         : Lossy\nStream size                              : 123 MiB (9%)\nLanguage                                 : English\nEncoded date                             : UTC 2014-05-22 21:08:39\nTagged date                              : UTC 2014-05-22 21:33:43","torrent":{"xt":"urn:btih:a4dd289a860d148709bb737f3e1d8651e0c6588b","amp;dn":"Dr.+Phibes+Rises+Again+%281972%29+DVDrip","amp;tr":["udp%3A%2F%2Ftracker.openbittorrent.com%3A80","udp%3A%2F%2Fopen.demonii.com%3A1337","udp%3A%2F%2Ftracker.coppersurfer.tk%3A6969","udp%3A%2F%2Fexodus.desync.com%3A6969"],"infoHash":"a4dd289a860d148709bb737f3e1d8651e0c6588b","infoHashBuffer":{"type":"Buffer","data":[164,221,40,154,134,13,20,135,9,187,115,127,62,29,134,81,224,198,88,139]},"announce":[],"urlList":[]}}